<mxfile host="app.diagrams.net" modified="2024-02-12T15:52:18.518Z" agent="Mozilla/5.0 (X11; Linux x86_64; rv:122.0) Gecko/20100101 Firefox/122.0" etag="DVCFkrfHWYPFN4k_m0EA" version="23.0.2" type="github">
  <diagram name="Page-1" id="uiLj8pH_HOSguKYj9cg_">
    <mxGraphModel dx="786" dy="526" grid="1" gridSize="10" guides="1" tooltips="1" connect="1" arrows="1" fold="1" page="1" pageScale="1" pageWidth="850" pageHeight="1100" math="0" shadow="0">
      <root>
        <mxCell id="0" />
        <mxCell id="1" parent="0" />
        <mxCell id="aV7_xzioC32VbGVjk3as-1" value="" style="rounded=1;whiteSpace=wrap;html=1;arcSize=5;" vertex="1" parent="1">
          <mxGeometry x="328" y="65" width="330" height="275" as="geometry" />
        </mxCell>
        <mxCell id="aV7_xzioC32VbGVjk3as-3" value="&lt;div style=&quot;font-size: 16px;&quot;&gt;&lt;font style=&quot;font-size: 16px;&quot;&gt;&lt;b style=&quot;&quot;&gt;&lt;font style=&quot;font-size: 16px;&quot;&gt;Image Insert&lt;br&gt;&lt;/font&gt;&lt;/b&gt;&lt;/font&gt;&lt;/div&gt;" style="text;html=1;strokeColor=none;fillColor=none;align=center;verticalAlign=middle;whiteSpace=wrap;rounded=0;" vertex="1" parent="1">
          <mxGeometry x="420" y="50" width="150" height="80" as="geometry" />
        </mxCell>
        <mxCell id="aV7_xzioC32VbGVjk3as-4" value="&lt;font size=&quot;1&quot;&gt;&lt;b&gt;&lt;font style=&quot;font-size: 15px;&quot;&gt;Insert&lt;/font&gt;&lt;/b&gt;&lt;/font&gt;" style="rounded=1;whiteSpace=wrap;html=1;fillColor=#999898;" vertex="1" parent="1">
          <mxGeometry x="579" y="75" width="70" height="35" as="geometry" />
        </mxCell>
        <mxCell id="aV7_xzioC32VbGVjk3as-7" value="&lt;font size=&quot;1&quot;&gt;&lt;b&gt;&lt;font style=&quot;font-size: 15px;&quot;&gt;Cancel&lt;/font&gt;&lt;/b&gt;&lt;/font&gt;" style="rounded=1;whiteSpace=wrap;html=1;" vertex="1" parent="1">
          <mxGeometry x="339" y="75" width="70" height="35" as="geometry" />
        </mxCell>
        <mxCell id="aV7_xzioC32VbGVjk3as-10" value="" style="endArrow=none;html=1;rounded=0;" edge="1" parent="1">
          <mxGeometry width="50" height="50" relative="1" as="geometry">
            <mxPoint x="330" y="120" as="sourcePoint" />
            <mxPoint x="660" y="120.5" as="targetPoint" />
          </mxGeometry>
        </mxCell>
        <mxCell id="aV7_xzioC32VbGVjk3as-11" value="Insert a new image into your note" style="text;html=1;strokeColor=none;fillColor=none;align=center;verticalAlign=middle;whiteSpace=wrap;rounded=0;" vertex="1" parent="1">
          <mxGeometry x="335" y="130" width="180" height="30" as="geometry" />
        </mxCell>
        <mxCell id="aV7_xzioC32VbGVjk3as-12" value="" style="rounded=1;whiteSpace=wrap;html=1;arcSize=5;" vertex="1" parent="1">
          <mxGeometry x="338" y="170" width="310" height="150" as="geometry" />
        </mxCell>
        <mxCell id="aV7_xzioC32VbGVjk3as-14" value="&lt;div align=&quot;left&quot;&gt;&lt;b&gt;&lt;font style=&quot;font-size: 16px;&quot;&gt;Image Source&lt;/font&gt;&lt;/b&gt;&lt;/div&gt;" style="text;html=1;strokeColor=none;fillColor=none;align=left;verticalAlign=middle;whiteSpace=wrap;rounded=0;" vertex="1" parent="1">
          <mxGeometry x="348" y="180" width="120" height="30" as="geometry" />
        </mxCell>
        <mxCell id="aV7_xzioC32VbGVjk3as-15" value="&lt;font style=&quot;font-size: 12px;&quot;&gt;URL&lt;/font&gt;&lt;b&gt;&amp;nbsp;&amp;nbsp;&amp;nbsp;&amp;nbsp;&amp;nbsp;&amp;nbsp; &lt;/b&gt;" style="rounded=1;whiteSpace=wrap;html=1;" vertex="1" parent="1">
          <mxGeometry x="528" y="180" width="110" height="30" as="geometry" />
        </mxCell>
        <mxCell id="aV7_xzioC32VbGVjk3as-16" value="" style="endArrow=none;html=1;rounded=0;entryX=0.776;entryY=0.017;entryDx=0;entryDy=0;entryPerimeter=0;" edge="1" parent="1" target="aV7_xzioC32VbGVjk3as-15">
          <mxGeometry width="50" height="50" relative="1" as="geometry">
            <mxPoint x="613" y="210" as="sourcePoint" />
            <mxPoint x="612.7599999999998" y="175.72" as="targetPoint" />
          </mxGeometry>
        </mxCell>
        <mxCell id="aV7_xzioC32VbGVjk3as-17" value="&amp;nbsp;&lt;b&gt;â–¼&lt;/b&gt;" style="text;html=1;strokeColor=none;fillColor=none;align=center;verticalAlign=middle;whiteSpace=wrap;rounded=0;" vertex="1" parent="1">
          <mxGeometry x="607" y="185" width="30" height="20" as="geometry" />
        </mxCell>
        <mxCell id="aV7_xzioC32VbGVjk3as-20" value="&lt;div align=&quot;left&quot;&gt;&lt;font style=&quot;font-size: 16px;&quot;&gt;&lt;b&gt;URL Source&lt;/b&gt;&lt;/font&gt;&lt;br&gt;&lt;/div&gt;" style="text;html=1;strokeColor=none;fillColor=none;align=left;verticalAlign=middle;whiteSpace=wrap;rounded=0;" vertex="1" parent="1">
          <mxGeometry x="348" y="230" width="120" height="30" as="geometry" />
        </mxCell>
        <mxCell id="aV7_xzioC32VbGVjk3as-21" value="http://example.com/..." style="rounded=1;whiteSpace=wrap;html=1;" vertex="1" parent="1">
          <mxGeometry x="508" y="230" width="130" height="30" as="geometry" />
        </mxCell>
        <mxCell id="aV7_xzioC32VbGVjk3as-23" value="" style="endArrow=none;html=1;rounded=0;exitX=0.008;exitY=0.209;exitDx=0;exitDy=0;exitPerimeter=0;entryX=0.999;entryY=0.356;entryDx=0;entryDy=0;entryPerimeter=0;" edge="1" parent="1" target="aV7_xzioC32VbGVjk3as-12">
          <mxGeometry width="50" height="50" relative="1" as="geometry">
            <mxPoint x="338.48" y="223.07000000000005" as="sourcePoint" />
            <mxPoint x="650" y="223" as="targetPoint" />
          </mxGeometry>
        </mxCell>
        <mxCell id="aV7_xzioC32VbGVjk3as-24" value="&lt;b&gt;&lt;font style=&quot;font-size: 16px;&quot;&gt;Description&lt;/font&gt;&lt;/b&gt;" style="text;html=1;strokeColor=none;fillColor=none;align=left;verticalAlign=middle;whiteSpace=wrap;rounded=0;" vertex="1" parent="1">
          <mxGeometry x="348" y="274" width="120" height="30" as="geometry" />
        </mxCell>
        <mxCell id="aV7_xzioC32VbGVjk3as-25" value="" style="rounded=1;whiteSpace=wrap;html=1;" vertex="1" parent="1">
          <mxGeometry x="508" y="280" width="130" height="30" as="geometry" />
        </mxCell>
        <mxCell id="aV7_xzioC32VbGVjk3as-26" value="" style="endArrow=none;html=1;rounded=0;entryX=1;entryY=0.224;entryDx=0;entryDy=0;entryPerimeter=0;exitX=0.008;exitY=0.209;exitDx=0;exitDy=0;exitPerimeter=0;" edge="1" parent="1">
          <mxGeometry width="50" height="50" relative="1" as="geometry">
            <mxPoint x="338.48" y="267.07000000000005" as="sourcePoint" />
            <mxPoint x="648" y="266" as="targetPoint" />
          </mxGeometry>
        </mxCell>
        <mxCell id="aV7_xzioC32VbGVjk3as-27" value="Shown when hovering" style="text;html=1;strokeColor=none;fillColor=none;align=center;verticalAlign=middle;whiteSpace=wrap;rounded=0;" vertex="1" parent="1">
          <mxGeometry x="348" y="290" width="120" height="30" as="geometry" />
        </mxCell>
      </root>
    </mxGraphModel>
  </diagram>
</mxfile>
